<mxfile host="app.diagrams.net" modified="2024-04-08T08:27:15.397Z" agent="Mozilla/5.0 (Windows NT 10.0; Win64; x64) AppleWebKit/537.36 (KHTML, like Gecko) Chrome/123.0.0.0 Safari/537.36" etag="9hY0iUshAlC4YJuH4oHD" version="24.2.2" type="device">
  <diagram id="R2lEEEUBdFMjLlhIrx00" name="Page-1">
    <mxGraphModel dx="1509" dy="785" grid="1" gridSize="10" guides="1" tooltips="1" connect="1" arrows="0" fold="1" page="1" pageScale="1" pageWidth="850" pageHeight="1100" math="0" shadow="0" extFonts="Permanent Marker^https://fonts.googleapis.com/css?family=Permanent+Marker">
      <root>
        <mxCell id="0" />
        <mxCell id="1" parent="0" />
        <mxCell id="lQUf5ithtC8Jtjo2k2HI-15" style="rounded=0;orthogonalLoop=1;jettySize=auto;html=1;exitX=0;exitY=0.5;exitDx=0;exitDy=0;entryX=1;entryY=0.5;entryDx=0;entryDy=0;endArrow=none;endFill=0;" edge="1" parent="1" source="lQUf5ithtC8Jtjo2k2HI-1" target="lQUf5ithtC8Jtjo2k2HI-6">
          <mxGeometry relative="1" as="geometry" />
        </mxCell>
        <mxCell id="lQUf5ithtC8Jtjo2k2HI-16" style="rounded=0;orthogonalLoop=1;jettySize=auto;html=1;exitX=0.5;exitY=0;exitDx=0;exitDy=0;endArrow=none;endFill=0;" edge="1" parent="1" source="lQUf5ithtC8Jtjo2k2HI-1" target="lQUf5ithtC8Jtjo2k2HI-4">
          <mxGeometry relative="1" as="geometry" />
        </mxCell>
        <mxCell id="lQUf5ithtC8Jtjo2k2HI-17" style="rounded=0;orthogonalLoop=1;jettySize=auto;html=1;exitX=1;exitY=0.5;exitDx=0;exitDy=0;entryX=0.5;entryY=1;entryDx=0;entryDy=0;endArrow=none;endFill=0;" edge="1" parent="1" source="lQUf5ithtC8Jtjo2k2HI-1" target="lQUf5ithtC8Jtjo2k2HI-9">
          <mxGeometry relative="1" as="geometry" />
        </mxCell>
        <mxCell id="lQUf5ithtC8Jtjo2k2HI-55" style="rounded=0;orthogonalLoop=1;jettySize=auto;html=1;exitX=0.5;exitY=1;exitDx=0;exitDy=0;endArrow=none;endFill=0;entryX=0.5;entryY=0;entryDx=0;entryDy=0;" edge="1" parent="1" source="lQUf5ithtC8Jtjo2k2HI-1" target="lQUf5ithtC8Jtjo2k2HI-53">
          <mxGeometry relative="1" as="geometry" />
        </mxCell>
        <mxCell id="lQUf5ithtC8Jtjo2k2HI-66" style="rounded=0;orthogonalLoop=1;jettySize=auto;html=1;exitX=1;exitY=0.5;exitDx=0;exitDy=0;entryX=0;entryY=0.5;entryDx=0;entryDy=0;endArrow=none;endFill=0;" edge="1" parent="1" source="lQUf5ithtC8Jtjo2k2HI-1" target="lQUf5ithtC8Jtjo2k2HI-65">
          <mxGeometry relative="1" as="geometry" />
        </mxCell>
        <mxCell id="lQUf5ithtC8Jtjo2k2HI-1" value="User" style="whiteSpace=wrap;html=1;align=center;" vertex="1" parent="1">
          <mxGeometry x="370" y="185" width="100" height="40" as="geometry" />
        </mxCell>
        <mxCell id="lQUf5ithtC8Jtjo2k2HI-2" value="Gmail" style="ellipse;whiteSpace=wrap;html=1;align=center;" vertex="1" parent="1">
          <mxGeometry x="240" y="40" width="100" height="40" as="geometry" />
        </mxCell>
        <mxCell id="lQUf5ithtC8Jtjo2k2HI-3" value="First_Name" style="ellipse;whiteSpace=wrap;html=1;align=center;" vertex="1" parent="1">
          <mxGeometry x="480" y="40" width="100" height="40" as="geometry" />
        </mxCell>
        <mxCell id="lQUf5ithtC8Jtjo2k2HI-4" value="Address" style="ellipse;whiteSpace=wrap;html=1;align=center;" vertex="1" parent="1">
          <mxGeometry x="365" y="90" width="100" height="40" as="geometry" />
        </mxCell>
        <mxCell id="lQUf5ithtC8Jtjo2k2HI-5" value="Phone_Number" style="ellipse;whiteSpace=wrap;html=1;align=center;" vertex="1" parent="1">
          <mxGeometry x="180" y="100" width="100" height="40" as="geometry" />
        </mxCell>
        <mxCell id="lQUf5ithtC8Jtjo2k2HI-6" value="DOB" style="ellipse;whiteSpace=wrap;html=1;align=center;" vertex="1" parent="1">
          <mxGeometry x="180" y="170" width="100" height="40" as="geometry" />
        </mxCell>
        <mxCell id="lQUf5ithtC8Jtjo2k2HI-18" style="rounded=0;orthogonalLoop=1;jettySize=auto;html=1;exitX=0.5;exitY=0;exitDx=0;exitDy=0;endArrow=none;endFill=0;" edge="1" parent="1" source="lQUf5ithtC8Jtjo2k2HI-9" target="lQUf5ithtC8Jtjo2k2HI-3">
          <mxGeometry relative="1" as="geometry" />
        </mxCell>
        <mxCell id="lQUf5ithtC8Jtjo2k2HI-19" style="rounded=0;orthogonalLoop=1;jettySize=auto;html=1;exitX=1;exitY=0.5;exitDx=0;exitDy=0;endArrow=none;endFill=0;" edge="1" parent="1" source="lQUf5ithtC8Jtjo2k2HI-9" target="lQUf5ithtC8Jtjo2k2HI-10">
          <mxGeometry relative="1" as="geometry" />
        </mxCell>
        <mxCell id="lQUf5ithtC8Jtjo2k2HI-9" value="Name" style="ellipse;shape=doubleEllipse;margin=3;whiteSpace=wrap;html=1;align=center;" vertex="1" parent="1">
          <mxGeometry x="480" y="100" width="100" height="40" as="geometry" />
        </mxCell>
        <mxCell id="lQUf5ithtC8Jtjo2k2HI-10" value="Last_Name" style="ellipse;whiteSpace=wrap;html=1;align=center;" vertex="1" parent="1">
          <mxGeometry x="600" y="100" width="100" height="40" as="geometry" />
        </mxCell>
        <mxCell id="lQUf5ithtC8Jtjo2k2HI-12" style="rounded=0;orthogonalLoop=1;jettySize=auto;html=1;endArrow=none;endFill=0;exitX=0;exitY=0;exitDx=0;exitDy=0;" edge="1" parent="1" source="lQUf5ithtC8Jtjo2k2HI-1" target="lQUf5ithtC8Jtjo2k2HI-2">
          <mxGeometry relative="1" as="geometry">
            <mxPoint x="360" y="170" as="sourcePoint" />
          </mxGeometry>
        </mxCell>
        <mxCell id="lQUf5ithtC8Jtjo2k2HI-13" value="" style="rounded=0;orthogonalLoop=1;jettySize=auto;html=1;endArrow=none;endFill=0;exitX=0;exitY=0;exitDx=0;exitDy=0;" edge="1" parent="1" source="lQUf5ithtC8Jtjo2k2HI-1" target="lQUf5ithtC8Jtjo2k2HI-5">
          <mxGeometry relative="1" as="geometry">
            <mxPoint x="210" y="100" as="sourcePoint" />
          </mxGeometry>
        </mxCell>
        <mxCell id="lQUf5ithtC8Jtjo2k2HI-41" value="&lt;u&gt;Turf-id&lt;/u&gt;" style="ellipse;whiteSpace=wrap;html=1;align=center;" vertex="1" parent="1">
          <mxGeometry x="477.5" y="530" width="100" height="40" as="geometry" />
        </mxCell>
        <mxCell id="lQUf5ithtC8Jtjo2k2HI-42" value="Turf_Name" style="ellipse;whiteSpace=wrap;html=1;align=center;" vertex="1" parent="1">
          <mxGeometry x="272.5" y="530" width="100" height="40" as="geometry" />
        </mxCell>
        <mxCell id="lQUf5ithtC8Jtjo2k2HI-43" value="Turf_Location" style="ellipse;whiteSpace=wrap;html=1;align=center;" vertex="1" parent="1">
          <mxGeometry x="262.5" y="660" width="100" height="50" as="geometry" />
        </mxCell>
        <mxCell id="lQUf5ithtC8Jtjo2k2HI-44" value="Sport" style="ellipse;whiteSpace=wrap;html=1;align=center;" vertex="1" parent="1">
          <mxGeometry x="462.5" y="660" width="100" height="50" as="geometry" />
        </mxCell>
        <mxCell id="lQUf5ithtC8Jtjo2k2HI-61" style="rounded=0;orthogonalLoop=1;jettySize=auto;html=1;exitX=0.25;exitY=0;exitDx=0;exitDy=0;endArrow=none;endFill=0;" edge="1" parent="1" source="lQUf5ithtC8Jtjo2k2HI-45" target="lQUf5ithtC8Jtjo2k2HI-42">
          <mxGeometry relative="1" as="geometry" />
        </mxCell>
        <mxCell id="lQUf5ithtC8Jtjo2k2HI-62" style="rounded=0;orthogonalLoop=1;jettySize=auto;html=1;exitX=0.75;exitY=0;exitDx=0;exitDy=0;entryX=0;entryY=0.5;entryDx=0;entryDy=0;endArrow=none;endFill=0;" edge="1" parent="1" source="lQUf5ithtC8Jtjo2k2HI-45" target="lQUf5ithtC8Jtjo2k2HI-41">
          <mxGeometry relative="1" as="geometry" />
        </mxCell>
        <mxCell id="lQUf5ithtC8Jtjo2k2HI-63" style="rounded=0;orthogonalLoop=1;jettySize=auto;html=1;exitX=1;exitY=1;exitDx=0;exitDy=0;entryX=0.5;entryY=0;entryDx=0;entryDy=0;endArrow=none;endFill=0;" edge="1" parent="1" source="lQUf5ithtC8Jtjo2k2HI-45" target="lQUf5ithtC8Jtjo2k2HI-44">
          <mxGeometry relative="1" as="geometry" />
        </mxCell>
        <mxCell id="lQUf5ithtC8Jtjo2k2HI-64" style="rounded=0;orthogonalLoop=1;jettySize=auto;html=1;exitX=0;exitY=1;exitDx=0;exitDy=0;entryX=0.5;entryY=0;entryDx=0;entryDy=0;endArrow=none;endFill=0;" edge="1" parent="1" source="lQUf5ithtC8Jtjo2k2HI-45" target="lQUf5ithtC8Jtjo2k2HI-43">
          <mxGeometry relative="1" as="geometry" />
        </mxCell>
        <mxCell id="lQUf5ithtC8Jtjo2k2HI-45" value="Turf" style="whiteSpace=wrap;html=1;align=center;" vertex="1" parent="1">
          <mxGeometry x="372.5" y="590" width="100" height="40" as="geometry" />
        </mxCell>
        <mxCell id="lQUf5ithtC8Jtjo2k2HI-56" style="rounded=0;orthogonalLoop=1;jettySize=auto;html=1;endArrow=none;endFill=0;" edge="1" parent="1" source="lQUf5ithtC8Jtjo2k2HI-53" target="lQUf5ithtC8Jtjo2k2HI-45">
          <mxGeometry relative="1" as="geometry" />
        </mxCell>
        <mxCell id="lQUf5ithtC8Jtjo2k2HI-77" style="rounded=0;orthogonalLoop=1;jettySize=auto;html=1;exitX=0;exitY=0;exitDx=0;exitDy=0;endArrow=none;endFill=0;" edge="1" parent="1" source="lQUf5ithtC8Jtjo2k2HI-53" target="lQUf5ithtC8Jtjo2k2HI-68">
          <mxGeometry relative="1" as="geometry" />
        </mxCell>
        <mxCell id="lQUf5ithtC8Jtjo2k2HI-78" style="rounded=0;orthogonalLoop=1;jettySize=auto;html=1;exitX=1;exitY=1;exitDx=0;exitDy=0;endArrow=none;endFill=0;" edge="1" parent="1" source="lQUf5ithtC8Jtjo2k2HI-53" target="lQUf5ithtC8Jtjo2k2HI-72">
          <mxGeometry relative="1" as="geometry" />
        </mxCell>
        <mxCell id="lQUf5ithtC8Jtjo2k2HI-80" style="rounded=0;orthogonalLoop=1;jettySize=auto;html=1;exitX=1;exitY=0;exitDx=0;exitDy=0;entryX=0;entryY=0.5;entryDx=0;entryDy=0;endArrow=none;endFill=0;" edge="1" parent="1" source="lQUf5ithtC8Jtjo2k2HI-53" target="lQUf5ithtC8Jtjo2k2HI-79">
          <mxGeometry relative="1" as="geometry" />
        </mxCell>
        <mxCell id="lQUf5ithtC8Jtjo2k2HI-53" value="Books" style="shape=rhombus;perimeter=rhombusPerimeter;whiteSpace=wrap;html=1;align=center;" vertex="1" parent="1">
          <mxGeometry x="360" y="350" width="120" height="60" as="geometry" />
        </mxCell>
        <mxCell id="lQUf5ithtC8Jtjo2k2HI-65" value="User-id" style="ellipse;whiteSpace=wrap;html=1;align=center;fontStyle=4;" vertex="1" parent="1">
          <mxGeometry x="550" y="170" width="100" height="40" as="geometry" />
        </mxCell>
        <mxCell id="lQUf5ithtC8Jtjo2k2HI-68" value="Booking-id" style="ellipse;whiteSpace=wrap;html=1;align=center;fontStyle=4;" vertex="1" parent="1">
          <mxGeometry x="250" y="310" width="100" height="40" as="geometry" />
        </mxCell>
        <mxCell id="lQUf5ithtC8Jtjo2k2HI-72" value="Booking_time" style="ellipse;whiteSpace=wrap;html=1;align=center;" vertex="1" parent="1">
          <mxGeometry x="520" y="400" width="100" height="40" as="geometry" />
        </mxCell>
        <mxCell id="lQUf5ithtC8Jtjo2k2HI-85" style="rounded=0;orthogonalLoop=1;jettySize=auto;html=1;exitX=1;exitY=0.5;exitDx=0;exitDy=0;endArrow=none;endFill=0;" edge="1" parent="1" source="lQUf5ithtC8Jtjo2k2HI-79" target="lQUf5ithtC8Jtjo2k2HI-83">
          <mxGeometry relative="1" as="geometry" />
        </mxCell>
        <mxCell id="lQUf5ithtC8Jtjo2k2HI-86" style="rounded=0;orthogonalLoop=1;jettySize=auto;html=1;exitX=0.5;exitY=1;exitDx=0;exitDy=0;entryX=0;entryY=0.5;entryDx=0;entryDy=0;endArrow=none;endFill=0;" edge="1" parent="1" source="lQUf5ithtC8Jtjo2k2HI-79" target="lQUf5ithtC8Jtjo2k2HI-82">
          <mxGeometry relative="1" as="geometry" />
        </mxCell>
        <mxCell id="lQUf5ithtC8Jtjo2k2HI-79" value="Payment" style="whiteSpace=wrap;html=1;align=center;" vertex="1" parent="1">
          <mxGeometry x="670" y="230" width="100" height="40" as="geometry" />
        </mxCell>
        <mxCell id="lQUf5ithtC8Jtjo2k2HI-81" value="Payment-id" style="ellipse;whiteSpace=wrap;html=1;align=center;fontStyle=4;" vertex="1" parent="1">
          <mxGeometry x="780" y="160" width="100" height="40" as="geometry" />
        </mxCell>
        <mxCell id="lQUf5ithtC8Jtjo2k2HI-82" value="Payment_amout" style="ellipse;whiteSpace=wrap;html=1;align=center;" vertex="1" parent="1">
          <mxGeometry x="760" y="290" width="100" height="50" as="geometry" />
        </mxCell>
        <mxCell id="lQUf5ithtC8Jtjo2k2HI-83" value="Payment_type" style="ellipse;whiteSpace=wrap;html=1;align=center;" vertex="1" parent="1">
          <mxGeometry x="880" y="225" width="100" height="50" as="geometry" />
        </mxCell>
        <mxCell id="lQUf5ithtC8Jtjo2k2HI-84" style="rounded=0;orthogonalLoop=1;jettySize=auto;html=1;exitX=0.5;exitY=0;exitDx=0;exitDy=0;entryX=0;entryY=0.5;entryDx=0;entryDy=0;endArrow=none;endFill=0;" edge="1" parent="1" source="lQUf5ithtC8Jtjo2k2HI-79" target="lQUf5ithtC8Jtjo2k2HI-81">
          <mxGeometry relative="1" as="geometry" />
        </mxCell>
      </root>
    </mxGraphModel>
  </diagram>
</mxfile>
